# xmcd CD database file
#
# Track frame offsets:
#	150
#	17868
#	32061
#	43746
#	68708
#	82065
#	96523
#	113084
#	133393
#	149536
#
# Disc length: 2206 seconds
#
# Revision: 0
# Processed by: cddbd v1.5.1PL2 Copyright (c) Steve Scherf et al.
# Submitted via: CDex 1.51
#
DISCID=95089c0a
DTITLE=Little Feat - Dixie Chicken
DYEAR=1900
DGENRE=Rock
TTITLE0=Dixie Chicken
TTITLE1=Two Trains
TTITLE2=Roll Um Easy
TTITLE3=On Your Way Down
TTITLE4=Kiss It Off
TTITLE5=Fool Yourself
TTITLE6=Walkin All Night
TTITLE7=Fat Man In The Bathtub
TTITLE8=Juliette
TTITLE9=Lafayette Railroad
EXTD=
EXTT0=
EXTT1=
EXTT2=
EXTT3=
EXTT4=
EXTT5=
EXTT6=
EXTT7=
EXTT8=
EXTT9=
PLAYORDER=
